# xmcd
#
# Track frame offsets: 
#        150
#        8466
#        27513
#        41156
#        55328
#        63509
#        77987
#        91211
#        106888
#        132541
#        149388
#        167238
#
# Disc length: 2414 seconds
#
# Revision: 0
# Processed by: cddbd v1.5.1PL2 Copyright (c) Steve Scherf et al.
# Submitted via: ExactAudioCopy v0.95b3
#
DISCID=a4096c0c
DTITLE=Big George Brock and The Houserockers - Club Caravan
DYEAR=2006
DGENRE=Blues
TTITLE0=Houserocker Boogie
TTITLE1=Call Me A Lover
TTITLE2=Little Baby
TTITLE3=M For Mississippi
TTITLE4=Honest I Do
TTITLE5=All Night Long
TTITLE6=Nine Below Zero
TTITLE7=Hard Times
TTITLE8=Club Caravan
TTITLE9=Louisiana Blues
TTITLE10=Too Young
TTITLE11=Down South
EXTD=
EXTT0=
EXTT1=
EXTT2=
EXTT3=
EXTT4=
EXTT5=
EXTT6=
EXTT7=
EXTT8=
EXTT9=
EXTT10=
EXTT11=
PLAYORDER=
